<svg version="1.1" id="Layer_1" xmlns="http://www.w3.org/2000/svg" xmlns:xlink="http://www.w3.org/1999/xlink" viewBox="0 0 512 512" xml:space="preserve" width="64px" height="64px" fill="#000000"><g id="SVGRepo_bgCarrier" stroke-width="0"></g><g id="SVGRepo_tracerCarrier" stroke-linecap="round" stroke-linejoin="round"></g><g id="SVGRepo_iconCarrier"> <path style="fill:#368A4C;" d="M243.529,83.169H30.218c-8.804,0-15.941,7.137-15.941,15.941v118.848h245.191V99.109 C259.469,90.306,252.332,83.169,243.529,83.169z"></path> <path style="fill:#2C733F;" d="M243.529,83.169H139.635v134.789h119.834V99.109C259.469,90.306,252.332,83.169,243.529,83.169z"></path> <path style="fill:#CC7300;" d="M484.152,219.015c0-8.804-7.137-15.941-15.941-15.941h-36.717l-34.181-73.185 c-2.62-5.61-8.252-9.196-14.443-9.196h-88.031c-8.804,0-15.941,7.137-15.941,15.941v237.935H468.21 c8.804,0,15.941-7.137,15.941-15.941V219.015H484.152z"></path> <g> <path style="fill:#AA5F00;" d="M279.27,216.84H15.941C7.137,216.84,0,223.976,0,232.78v125.85c0,8.804,7.137,15.941,15.941,15.941 H279.27V216.84L279.27,216.84z"></path> <path style="fill:#AA5F00;" d="M278.901,295.705v78.865h189.311c8.804,0,15.941-7.137,15.941-15.941v-62.925H278.901z"></path> </g> <path style="fill:#864D00;" d="M0,295.705v62.925c0,8.804,7.137,15.941,15.941,15.941H279.27v-78.865H0z"></path> <circle style="fill:#57565C;" cx="85.838" cy="371.086" r="57.745"></circle> <path style="fill:#4B4A4F;" d="M85.833,313.338v115.491c31.892,0,57.745-25.854,57.745-57.745 C143.58,339.191,117.725,313.338,85.833,313.338z"></path> <circle style="fill:#3E3E42;" cx="85.838" cy="371.086" r="32.268"></circle> <path style="fill:#2D2E30;" d="M85.833,338.815v64.538c17.822,0,32.268-14.448,32.268-32.268 C118.102,353.262,103.655,338.815,85.833,338.815z"></path> <circle style="fill:#ACACB2;" cx="85.838" cy="371.086" r="17.575"></circle> <path style="fill:#8A8A91;" d="M85.833,361.664c8.3,0,15.238,5.761,17.08,13.497c0.312-1.311,0.495-2.672,0.495-4.078 c0-9.707-7.869-17.575-17.575-17.575s-17.575,7.869-17.575,17.575c0,1.406,0.182,2.767,0.495,4.078 C70.595,367.425,77.533,361.664,85.833,361.664z"></path> <path style="fill:#AA5F00;" d="M353.786,261.867h-32.135c-6.386,0-11.563-5.177-11.563-11.562l0,0 c0-6.386,5.177-11.562,11.563-11.562h32.135c6.386,0,11.562,5.177,11.562,11.562l0,0 C365.348,256.69,360.172,261.867,353.786,261.867z"></path> <path style="fill:#FFD322;" d="M512,299.415c0,14.477-11.737,26.213-26.213,26.213h-19.306c-3.032,0-5.49-2.458-5.49-5.49v-41.445 c0-3.032,2.458-5.49,5.49-5.49h19.306C500.263,273.202,512,284.937,512,299.415z"></path> <path style="fill:#D3AF1C;" d="M460.991,320.137c0,3.032,2.458,5.49,5.49,5.49h19.306c14.477,0,26.213-11.737,26.213-26.213h-51.009 L460.991,320.137L460.991,320.137z"></path> <circle style="fill:#57565C;" cx="401.597" cy="371.086" r="57.745"></circle> <path style="fill:#4B4A4F;" d="M401.596,313.338v115.491c31.892,0,57.745-25.854,57.745-57.745 C459.341,339.191,433.488,313.338,401.596,313.338z"></path> <circle style="fill:#3E3E42;" cx="401.597" cy="371.086" r="32.268"></circle> <path style="fill:#2D2E30;" d="M401.596,338.815v64.538c17.822,0,32.268-14.448,32.268-32.268 C433.865,353.262,419.417,338.815,401.596,338.815z"></path> <circle style="fill:#ACACB2;" cx="401.597" cy="371.086" r="17.575"></circle> <path style="fill:#8A8A91;" d="M401.596,361.664c8.3,0,15.238,5.761,17.08,13.497c0.312-1.311,0.495-2.672,0.495-4.078 c0-9.707-7.869-17.575-17.575-17.575c-9.706,0-17.575,7.869-17.575,17.575c0,1.406,0.182,2.767,0.495,4.078 C386.357,367.425,393.296,361.664,401.596,361.664z"></path> <path style="fill:#4B4A4F;" d="M279.27,177.93H46.017c-4.72,0-8.547-3.826-8.547-8.547l0,0c0-4.72,3.826-8.547,8.547-8.547H279.27 V177.93L279.27,177.93z"></path> <g> <rect x="85.838" y="177.926" style="fill:#2D2E30;" width="17.575" height="38.909"></rect> <rect x="181.976" y="177.926" style="fill:#2D2E30;" width="17.575" height="38.909"></rect> </g> <path style="fill:#7E4F1F;" d="M472.376,335.138h-9.61c-3.266,0-5.914-2.647-5.914-5.914v-56.204c0-3.266,2.647-5.914,5.914-5.914 h9.61c3.266,0,5.914,2.647,5.914,5.914v56.204C478.29,332.489,475.643,335.138,472.376,335.138z"></path> <rect x="404.941" y="256.281" style="fill:#DF871E;" width="40.232" height="10.828"></rect> <polygon style="fill:#9BCFF7;" points="310.781,152.576 310.781,203.285 396.406,203.285 372.723,152.576 "></polygon> </g></svg>